<svg width="40" height="40" viewBox="0 0 256 256" fill="none" xmlns="http://www.w3.org/2000/svg">
            <rect width="256" height="256" rx="26" fill="#F37748"/>
            <path d="M45.25 122V34.5H66.5V103.25H112.5V122H45.25ZM176.995 123.25C170.078 123.25 163.62 122.167 157.62 120C151.703 117.75 146.495 114.625 141.995 110.625C137.578 106.625 134.162 101.875 131.745 96.375C129.328 90.7917 128.12 84.625 128.12 77.875C128.12 71.2917 129.37 65.25 131.87 59.75C134.453 54.25 137.953 49.5 142.37 45.5C146.787 41.5 151.995 38.375 157.995 36.125C163.995 33.875 170.453 32.75 177.37 32.75C182.12 32.75 186.703 33.3333 191.12 34.5C195.62 35.6667 199.787 37.2917 203.62 39.375C207.453 41.4583 210.703 43.8333 213.37 46.5L200.745 62.25C198.745 60.3333 196.578 58.6667 194.245 57.25C191.912 55.75 189.287 54.5833 186.37 53.75C183.453 52.8333 180.245 52.375 176.745 52.375C173.328 52.375 169.995 52.9583 166.745 54.125C163.495 55.2917 160.62 57 158.12 59.25C155.62 61.4167 153.62 64.125 152.12 67.375C150.703 70.5417 149.995 74.125 149.995 78.125C149.995 82.125 150.745 85.7083 152.245 88.875C153.745 92.0417 155.787 94.75 158.37 97C161.037 99.1667 164.12 100.833 167.62 102C171.12 103.167 174.912 103.75 178.995 103.75C182.578 103.75 185.828 103.25 188.745 102.25C191.662 101.25 194.287 100.042 196.62 98.625C198.953 97.125 201.037 95.5417 202.87 93.875L212.995 110.25C210.745 112.417 207.745 114.5 203.995 116.5C200.245 118.5 196.037 120.125 191.37 121.375C186.703 122.625 181.912 123.25 176.995 123.25ZM88.25 228.25C81.3333 228.25 74.875 227.167 68.875 225C62.9583 222.75 57.75 219.625 53.25 215.625C48.8333 211.625 45.4167 206.875 43 201.375C40.5833 195.792 39.375 189.625 39.375 182.875C39.375 176.292 40.625 170.25 43.125 164.75C45.7083 159.25 49.2083 154.5 53.625 150.5C58.0417 146.5 63.25 143.375 69.25 141.125C75.25 138.875 81.7083 137.75 88.625 137.75C93.375 137.75 97.9583 138.333 102.375 139.5C106.875 140.667 111.042 142.292 114.875 144.375C118.708 146.458 121.958 148.833 124.625 151.5L112 167.25C110 165.333 107.833 163.667 105.5 162.25C103.167 160.75 100.542 159.583 97.625 158.75C94.7083 157.833 91.5 157.375 88 157.375C84.5833 157.375 81.25 157.958 78 159.125C74.75 160.292 71.875 162 69.375 164.25C66.875 166.417 64.875 169.125 63.375 172.375C61.9583 175.542 61.25 179.125 61.25 183.125C61.25 187.125 62 190.708 63.5 193.875C65 197.042 67.0417 199.75 69.625 202C72.2917 204.167 75.375 205.833 78.875 207C82.375 208.167 86.1667 208.75 90.25 208.75C93.8333 208.75 97.0833 208.25 100 207.25C102.917 206.25 105.542 205.042 107.875 203.625C110.208 202.125 112.292 200.542 114.125 198.875L124.25 215.25C122 217.417 119 219.5 115.25 221.5C111.5 223.5 107.292 225.125 102.625 226.375C97.9583 227.625 93.1667 228.25 88.25 228.25Z" fill="white"/>
        </svg>